<svg width="80" height="63" viewBox="0 0 80 63" fill="none" xmlns="http://www.w3.org/2000/svg">
<circle cx="39.5" cy="31.5" r="31.5" fill="white"/>
<path d="M80 36H68.5714L68 44.9999C69.5 40.4999 74.2857 36 80 36Z" fill="white"/>
<path d="M-0.000122261 36C4.49986 36.556 8.99986 40.5001 11.3794 45.7167L11.4999 40.0001L8.91075 34.5579C5.43084 35.0992 -0.000122261 36 -0.000122261 36Z" fill="white"/>
<path d="M34.7164 48.2238C34.6666 48.274 34.5989 48.3022 34.5282 48.3022C34.4575 48.3022 34.3898 48.274 34.34 48.2238L33.7781 47.6619C33.7268 47.6138 33.6978 47.5466 33.6978 47.4764C33.6978 47.4061 33.7268 47.3389 33.7781 47.2908L38.65 42.4189C38.7245 42.3443 38.8256 42.3023 38.931 42.3022L39.0688 42.3022C39.1742 42.3023 39.2753 42.3443 39.3498 42.4189L44.2217 47.2908C44.273 47.3389 44.302 47.4061 44.302 47.4764C44.302 47.5466 44.273 47.6138 44.2217 47.6619L43.6598 48.2238C43.61 48.274 43.5423 48.3022 43.4716 48.3022C43.4009 48.3022 43.3331 48.274 43.2834 48.2238L38.9999 43.9404L34.7164 48.2238Z" fill="#474747"/>
</svg>
